<svg data-v-0dd9719b="" version="1.0" xmlns="http://www.w3.org/2000/svg" xmlns:xlink="http://www.w3.org/1999/xlink" width="100%" height="100%" viewBox="0 0 340.000000 250.000000" preserveAspectRatio="xMidYMid meet" color-interpolation-filters="sRGB" style="margin: auto;"> <rect data-v-0dd9719b="" x="0" y="0" width="100%" height="100%" fill="#fff" fill-opacity="1" class="background"></rect> <rect data-v-0dd9719b="" x="0" y="0" width="100%" height="100%" fill="url(#watermark)" fill-opacity="1" class="watermarklayer"></rect> <g data-v-0dd9719b="" fill="#333" class="icon-text-wrapper icon-svg-group iconsvg" transform="translate(48.991432189941406,88.27804565429688)"><g class="iconsvg-imagesvg" transform="translate(0,0)"><g><rect fill="#333" fill-opacity="0" stroke-width="2" x="0" y="0" width="60" height="73.44390721586389" class="image-rect"></rect> <svg x="0" y="0" width="60" height="73.44390721586389" filtersec="colorsb7957167783" class="image-svg-svg primary" style="overflow: visible;"><svg xmlns="http://www.w3.org/2000/svg" viewBox="0.0007322460296563804 -0.00128936767578125 81.70841979980469 100.01615905761719"><path d="M65.68 67.05a6.52 6.52 0 1 1-6.52 6.51 6.51 6.51 0 0 1 6.52-6.51z" fill="#fc0"></path><path d="M53 .47l-.5.14a15.39 15.39 0 0 0-8 6 53.55 53.55 0 0 1 15.09 10.94C65.14 23.21 69.48 31 72.42 39a39.39 39.39 0 0 0-43.51-16.42l-.75.22a39.43 39.43 0 1 0 35.27 69.07c.52-.4-5.26-14.52-16.7-10.29-3 1.06-8.85 3.57-20.21-3C18 73.7 15.3 62.74 18.44 53.46a22.16 22.16 0 0 1 42.39 1.39A8.64 8.64 0 0 0 71.41 61c11.12-3 11.82-28.17 8.68-38.49C75.5 7.41 63.45-2.3 53 .47z" fill="#0077f0"></path><path d="M51.51 57a13.16 13.16 0 0 1-9.31 16.11 13.18 13.18 0 0 1-16.13-9.31 13.17 13.17 0 0 1 9.31-16.13A13.17 13.17 0 0 1 51.51 57z" fill="#3eae31"></path></svg></svg> <!----></g></g> <g transform="translate(67,8.200618743896484)"><g data-gra="path-name" fill-rule="" class="tp-name iconsvg-namesvg" transform="translate(0,0)"><g transform="scale(1)"><g><path d="M2.77-1.01L2.77-1.01Q2.77-0.79 3.69 1.49 4.61 3.78 4.83 3.78L4.83 3.78Q4.92 3.78 5.21 3.56 5.49 3.34 5.58 3.25L5.58 3.25Q5.76 2.9 9.1 1.85L9.1 1.85Q19.6-1.49 23.38-3.03L23.38-3.03Q23.86-3.21 23.8-3.47 23.73-3.74 23.2-3.65L23.2-3.65 18.37-3.03Q13.75-2.42 13.23-2.5L13.23-2.5Q12.39-2.59 12.3-3.6L12.3-3.6Q12.3-3.65 12.26-5.98L12.26-5.98Q12.26-8.83 12.39-9.14L12.39-9.14Q12.61-9.89 14.19-9.98L14.19-9.98Q14.41-9.98 18.06-9.98L18.06-9.98Q23.12-9.98 23.6-10.37L23.6-10.37Q23.99-10.68 22.76-11.91L22.76-11.91Q22.59-12.08 22.28-12.39L22.28-12.39Q20.52-14.15 20.02-14.22 19.51-14.28 18.5-12.74L18.5-12.74Q17.71-11.6 17.29-11.43 16.88-11.25 14.99-11.25L14.99-11.25Q12.92-11.25 12.59-11.51 12.26-11.78 12.26-13.4L12.26-13.4Q12.26-15.47 12.74-15.78L12.74-15.78Q13.32-16.17 12.3-16.66L12.3-16.66Q12-16.79 11.51-16.96L11.51-16.96Q10.28-17.4 10.2-17.73 10.11-18.06 11.12-18.5L11.12-18.5Q12.44-19.12 12.44-19.51L12.44-19.51Q12.44-19.64 12.66-19.91 12.88-20.17 13.1-20.26L13.1-20.26Q13.45-20.39 22.68-20.37 31.9-20.35 32.12-20.21L32.12-20.21Q32.74-19.95 32.74-19.07L32.74-19.07Q32.74-18.02 35.38-18.85L35.38-18.85Q35.55-18.9 35.82-18.98L35.82-18.98Q36.78-19.29 36.96-19.73L36.96-19.73Q37.18-20.35 37.05-24.21L37.05-24.21Q37-25.05 37-25.53L37-25.53Q36.83-31.55 37.09-32.34L37.09-32.34Q37.31-33 38.19-33.49L38.19-33.49Q38.72-33.79 38.47-34.23 38.23-34.67 37-35.68L37-35.68Q35.38-37 34.78-37.16 34.19-37.31 33.66-36.65L33.66-36.65Q33.49-36.47 33.27-36.17L33.27-36.17Q32.56-35.29 31.55-35.16 30.54-35.02 25.05-35.02L25.05-35.02Q23.33-35.02 22.32-35.02L22.32-35.02Q13.54-35.02 12.61-35.16L12.61-35.16Q12.04-35.29 9.84-36.17L9.84-36.17Q8.17-36.91 8-36.85 7.82-36.78 7.95-35.68L7.95-35.68Q8.57-29.84 8.26-22.85L8.26-22.85Q8.13-20.92 8.13-19.25L8.13-19.25Q8.13-18.28 8.11-18.13 8.09-17.97 7.91-17.93L7.91-17.93Q7.73-17.84 7.78-17.4L7.78-17.4Q8-15.78 8.13-9.65 8.26-3.52 8.09-2.64L8.09-2.64Q7.95-1.98 7.51-1.8 7.08-1.63 5.23-1.45 3.38-1.27 3.08-1.23 2.77-1.19 2.77-1.01ZM32.08-21.75L32.08-21.75Q31.73-21.58 22.57-21.6 13.4-21.62 13.1-21.75L13.1-21.75Q12.66-21.93 12.57-22.35 12.48-22.76 12.48-24.39L12.48-24.39Q12.48-26.24 12.48-26.28L12.48-26.28Q12.7-26.98 14.5-27.11L14.5-27.11Q15.25-27.16 22.59-27.16L22.59-27.16Q23.73-27.16 25.71-27.16L25.71-27.16Q31.38-27.2 32.12-26.85L32.12-26.85Q32.78-26.59 32.74-25.53L32.74-25.53Q32.74-25.44 32.74-25.22L32.74-25.22Q32.7-24.7 32.7-24.39L32.7-24.39Q32.7-22.76 32.61-22.35 32.52-21.93 32.08-21.75ZM32.21-28.65L32.21-28.65Q31.9-28.39 22.59-28.39 13.27-28.39 12.96-28.65L12.96-28.65Q12.61-28.87 12.52-29.36 12.44-29.84 12.44-31.29L12.44-31.29Q12.44-31.55 12.44-31.99L12.44-31.99Q12.39-33.31 13.32-33.53 14.24-33.75 19.86-33.75L19.86-33.75Q21.58-33.75 22.59-33.75L22.59-33.75Q23.6-33.75 25.31-33.75L25.31-33.75Q31.42-33.75 32.17-33.44L32.17-33.44Q32.78-33.18 32.74-32.17L32.74-32.17Q32.74-32.12 32.74-31.99L32.74-31.99Q32.74-31.55 32.74-31.29L32.74-31.29Q32.74-29.84 32.65-29.36 32.56-28.87 32.21-28.65ZM27.64 3.03L27.64 3.03Q29.36 3.25 34.69 3.01 40.03 2.77 41.13 2.42L41.13 2.42Q42.41 1.98 42.69 0.92 42.98-0.13 41.97-0.79L41.97-0.79Q41.48-1.14 41.35-1.65 41.22-2.15 41.13-3.82L41.13-3.82Q41.04-5.76 40.83-5.89L40.83-5.89Q40.69-5.98 40.39-5.1L40.39-5.1Q40.3-4.79 40.17-4.31L40.17-4.31Q39.81-3.12 39.75-2.77 39.68-2.42 39.24-1.82 38.8-1.23 38.67-1.16 38.54-1.1 37.6-0.92 36.65-0.75 36.1-0.77 35.55-0.79 33.71-0.79L33.71-0.79Q33.35-0.79 32.7-0.79L32.7-0.79Q29.53-0.79 29-1.14 28.48-1.49 28.43-3.21L28.43-3.21Q28.43-3.38 28.43-3.74L28.43-3.74Q28.43-4.17 28.43-4.44L28.43-4.44Q28.39-7.38 28.65-7.93 28.92-8.48 30.72-8.96L30.72-8.96Q33.53-9.71 37.09-11.12L37.09-11.12Q38.8-11.82 39.55-11.87L39.55-11.87Q40.52-11.95 40.52-12.26L40.52-12.26Q40.52-12.66 38.14-14.46L38.14-14.46Q36.69-15.56 36.47-15.58 36.25-15.6 35.33-14.72L35.33-14.72Q33.57-13.05 31.62-11.58 29.66-10.11 29.18-10.15L29.18-10.15Q28.43-10.24 28.34-12.66 28.26-15.07 29-15.73L29-15.73Q29.62-16.3 28.13-16.88L28.13-16.88Q27.25-17.23 25.44-17.67L25.44-17.67Q24.21-17.97 24.08-17.86 23.95-17.75 24.08-16.52L24.08-16.52Q24.26-15.25 24.32-10.22 24.39-5.19 24.3-3.56L24.3-3.56Q24.26-2.99 24.37-1.27 24.48 0.44 24.57 0.83L24.57 0.83Q24.79 1.85 25.44 2.33 26.1 2.81 27.64 3.03ZM79.23 2.99L79.23 2.99Q79.45 3.69 79.61 3.76 79.76 3.82 80.99 3.56L80.99 3.56Q83.98 2.94 84.81 1.32L84.81 1.32Q85.17 0.57 85.23-1.6 85.3-3.78 85.34-16.22L85.34-16.22Q85.39-32.21 85.47-32.43L85.47-32.43Q85.78-32.92 86.31-33.18L86.31-33.18Q87.14-33.57 86.97-34.01 86.79-34.45 85.43-35.55L85.43-35.55Q83.89-36.78 83.32-36.96 82.75-37.13 82.27-36.52L82.27-36.52Q82.13-36.39 81.96-36.12L81.96-36.12Q81.21-35.16 80.71-35 80.2-34.85 77.92-34.85L77.92-34.85Q77.04-34.85 76.55-34.85L76.55-34.85Q73.08-34.85 72.51-34.94 71.94-35.02 69.57-35.99L69.57-35.99Q67.94-36.65 67.76-36.58 67.59-36.52 67.72-35.38L67.72-35.38Q67.98-32.78 68.03-24.81 68.07-16.83 67.81-14.46L67.81-14.46Q67.19-8.66 65.26-4.68 63.33-0.7 59.55 2.64L59.55 2.64Q58.8 3.34 58.89 3.47L58.89 3.47Q59.15 3.82 60.12 3.3L60.12 3.3Q68.91-1.54 71.02-10.94L71.02-10.94Q71.02-11.03 71.06-11.21L71.06-11.21Q71.32-12.35 71.76-12.61L71.76-12.61Q72.29-12.88 75.76-12.88L75.76-12.88 76.38-12.88Q76.95-12.88 77.87-12.88 78.79-12.88 79.08-12.92 79.37-12.96 79.91-12.85 80.46-12.74 80.57-12.74 80.68-12.74 80.97-12.41 81.25-12.08 81.23-11.95 81.21-11.82 81.32-11.18 81.43-10.55 81.39-10.2 81.34-9.84 81.34-8.79 81.34-7.73 81.34-7.03L81.34-7.03Q81.34-2.68 81.17-2.07L81.17-2.07Q80.9-1.1 79.58-1.05L79.58-1.05Q79.28-1.05 76.07-1.23L76.07-1.23Q73.7-1.41 73.7-1.1 73.7-0.79 74.84-0.53L74.84-0.53Q76.86-0.13 77.87 0.66 78.88 1.45 79.23 2.99ZM81.28-15.07Q81.21-14.5 80.82-14.28 80.42-14.06 76.38-14.13 72.33-14.19 72.07-14.41 71.81-14.63 71.78-15.14 71.76-15.64 71.85-19.38L71.85-19.38Q71.85-19.73 71.89-20.35L71.89-20.35Q71.94-22.5 72.29-22.9L72.29-22.9Q72.73-23.33 75.19-23.29L75.19-23.29 75.5-23.29Q76.25-23.29 76.68-23.29L76.68-23.29Q77.17-23.29 78.07-23.29 78.97-23.29 79.19-23.33 79.41-23.38 79.96-23.25 80.51-23.12 80.57-23.16 80.64-23.2 80.95-22.9 81.25-22.59 81.21-22.54 81.17-22.5 81.3-21.93 81.43-21.36 81.39-21.14 81.34-20.92 81.34-20.04 81.34-19.16 81.34-18.68L81.34-18.68Q81.34-15.64 81.28-15.07ZM80.82-24.7L80.82-24.7Q80.51-24.48 76.64-24.52 72.77-24.57 72.47-24.79L72.47-24.79Q72.07-25 71.98-25.69 71.89-26.37 71.89-29.27L71.89-29.27 71.89-30.37Q71.89-32.78 72.33-33.2 72.77-33.62 75.37-33.57L75.37-33.57Q76.2-33.57 76.68-33.57L76.68-33.57Q77.12-33.57 77.92-33.57L77.92-33.57Q80.51-33.62 80.95-33.2 81.39-32.78 81.34-30.28L81.34-30.28Q81.34-29.49 81.34-29L81.34-29Q81.34-26.06 81.28-25.49 81.21-24.92 80.82-24.7ZM49.61-4.17L49.61-4.17Q50.14-4.04 51.2-4.42 52.25-4.79 52.78-5.27L52.78-5.27Q53-5.49 53.04-5.76 53.09-6.02 53.04-7.34L53.04-7.34Q53-9.36 53.37-9.67 53.75-9.98 56.29-9.98L56.29-9.98Q58.75-9.98 59.19-9.71 59.63-9.45 59.55-8L59.55-8Q59.5-6.5 60.1-6.28 60.69-6.06 62.4-6.9L62.4-6.9Q63.5-7.43 63.65-7.78 63.81-8.13 63.72-9.76L63.72-9.76Q63.46-15.42 63.46-25.14L63.46-25.14Q63.5-30.41 63.57-31.14 63.63-31.86 64.16-32.17L64.16-32.17Q64.73-32.56 64.93-32.67 65.13-32.78 65.1-33.07 65.08-33.35 64.89-33.55 64.69-33.75 64.07-34.41L64.07-34.41Q62.27-36.21 61.7-36.39 61.13-36.56 60.38-35.6L60.38-35.6Q59.37-34.32 58.93-34.17 58.49-34.01 55.94-34.01L55.94-34.01Q54.05-34.06 53.42-34.19 52.78-34.32 51.06-34.98L51.06-34.98Q49.09-35.82 48.89-35.73 48.69-35.64 48.82-34.23L48.82-34.23Q49.13-30.81 49.13-21.88L49.13-21.88Q49.13-12.08 48.82-7.25L48.82-7.25Q48.69-5.23 48.78-4.79 48.87-4.35 49.61-4.17ZM59.15-11.47L59.15-11.47Q58.84-11.25 56.36-11.23 53.88-11.21 53.57-11.43L53.57-11.43Q53.17-11.65 53.09-12.33 53-13.01 53-16.39L53-16.39Q53-16.88 53-17.71L53-17.71Q53-20.61 53.31-21.07 53.61-21.53 55.55-21.49L55.55-21.49Q56.12-21.49 56.43-21.49L56.43-21.49Q56.51-21.49 57.26-21.49L57.26-21.49Q59.11-21.49 59.39-21.01 59.68-20.52 59.68-17.58L59.68-17.58Q59.68-16.79 59.68-16.35L59.68-16.35Q59.68-13.14 59.59-12.41 59.5-11.69 59.15-11.47ZM59.28-23.03L59.28-23.03Q59.06-22.81 56.47-22.74 53.88-22.68 53.57-22.9L53.57-22.9Q53.17-23.16 53.09-23.82 53-24.48 53-27.73L53-27.73Q53-28.17 53-28.92L53-28.92Q53-31.82 53.31-32.3 53.61-32.78 55.5-32.74L55.5-32.74Q55.99-32.74 56.29-32.74L56.29-32.74Q56.56-32.74 57.08-32.74L57.08-32.74Q58.93-32.78 59.28-32.39L59.28-32.39Q59.68-31.95 59.68-29.18L59.68-29.18Q59.68-29.09 59.68-29L59.68-29Q59.68-28.39 59.68-28.04L59.68-28.04Q59.68-24.79 59.63-24.04 59.59-23.29 59.28-23.03ZM93.08 0.18L93.6 1.23Q93.78 1.45 93.98 1.45 94.17 1.45 95.45 1.27L95.45 1.27Q97.51 1.01 100.35 0.94 103.18 0.88 115.18 0.88L115.18 0.88Q127.53 0.88 129.7 0.83 131.88 0.79 132.14 0.53L132.14 0.53Q132.54 0.18 131.48-0.92 130.43-2.02 128.36-3.43L128.36-3.43Q127.49-4 127.22-3.89 126.96-3.78 125.86-2.24L125.86-2.24Q125.68-2.02 125.46-1.67L125.46-1.67Q124.76-0.66 123.68-0.51 122.61-0.35 116.67-0.35L116.67-0.35Q114.7-0.35 113.51-0.35L113.51-0.35Q105.12-0.35 104.63-0.4L104.63-0.4Q102.74-0.57 102.44-1.49L102.44-1.49Q102.26-1.93 102.35-4.7L102.35-4.7Q102.35-5.23 102.35-5.71L102.35-5.71Q102.35-6.42 102.3-7.56L102.3-7.56Q102.22-10.24 102.96-10.68 103.71-11.12 108.24-11.07L108.24-11.07Q110.08-11.07 111.23-11.07L111.23-11.07Q112.06-11.07 113.47-11.07L113.47-11.07Q118.56-11.07 119.4-10.88 120.23-10.68 120.15-9.45L120.15-9.45Q120.1-9.1 120.1-8.88L120.1-8.88Q120.06-7.38 120.45-7.1 120.85-6.81 122.34-7.21L122.34-7.21Q124.1-7.65 124.37-8.13 124.63-8.61 124.54-10.94L124.54-10.94Q124.23-18.33 124.41-20.19 124.58-22.06 125.6-22.5L125.6-22.5Q126.69-22.98 126.04-23.82L126.04-23.82Q125.55-24.39 123.88-25.62L123.88-25.62Q122.39-26.76 122.04-26.76 121.68-26.76 120.81-25.75L120.81-25.75Q120.67-25.58 120.45-25.31L120.45-25.31Q119.88-24.57 119.03-24.43 118.17-24.3 113.64-24.3L113.64-24.3Q112.06-24.3 111.14-24.3L111.14-24.3Q110-24.3 108.11-24.3L108.11-24.3Q103.67-24.26 102.94-24.61 102.22-24.96 102.3-27.03L102.3-27.03Q102.35-27.95 102.35-28.48L102.35-28.48Q102.35-29.05 102.3-30.01L102.3-30.01Q102.17-32.12 103.29-32.45 104.41-32.78 111.49-32.74L111.49-32.74Q114.65-32.74 116.63-32.74L116.63-32.74Q127-32.74 128.74-32.81 130.47-32.87 130.61-33.18L130.61-33.18Q130.65-33.22 130.65-33.27L130.65-33.27Q130.83-33.62 129.75-34.67 128.67-35.73 126.96-36.91L126.96-36.91Q126.08-37.49 125.75-37.35 125.42-37.22 124.23-35.68L124.23-35.68Q124.1-35.46 123.88-35.16L123.88-35.16Q123.57-34.67 123.33-34.5 123.09-34.32 122.17-34.19 121.25-34.06 119.42-34.04 117.6-34.01 114.26-34.01L114.26-34.01Q111.71-34.01 110.17-34.01L110.17-34.01Q96.59-34.01 93.78-34.23L93.78-34.23Q93.21-34.32 93.19-34.19 93.16-34.06 93.6-33.13L93.6-33.13Q94-32.34 94.13-32.28 94.26-32.21 95.23-32.48L95.23-32.48Q97.56-33.09 97.95-32.08L97.95-32.08Q98.09-31.73 98.09-16.57 98.09-1.41 97.95-1.05L97.95-1.05Q97.56-0.09 93.91-0.53L93.91-0.53Q92.9-0.62 92.83-0.55 92.77-0.48 93.08 0.18L93.08 0.18ZM119.71-12.57L119.71-12.57Q119.4-12.35 111.29-12.33 103.18-12.3 102.88-12.52L102.88-12.52Q102.48-12.74 102.41-13.38 102.35-14.02 102.35-17.62L102.35-17.62Q102.35-18.33 102.3-19.51L102.3-19.51Q102.22-22.19 102.96-22.63 103.71-23.07 108.28-23.03L108.28-23.03Q110.13-23.03 111.23-23.03L111.23-23.03Q119.14-23.03 119.62-22.85L119.62-22.85Q119.79-22.76 120.01-22.46L120.01-22.46Q120.41-21.93 120.28-17.38 120.15-12.83 119.71-12.57ZM155.57 3.74L155.57 3.74Q156.01 3.96 157.04 3.8 158.07 3.65 159.04 3.21L159.04 3.21Q159.74 2.9 159.85 2.57 159.96 2.24 159.83 0.66L159.83 0.66Q159.48-6.37 159.74-7.29L159.74-7.29Q159.92-7.78 160.09-7.82L160.09-7.82Q160.62-8.04 168.79-8.09L168.79-8.09Q175.03-8.13 176.24-8.2 177.45-8.26 177.67-8.57L177.67-8.57 177.71-8.61Q177.89-8.88 177.65-9.23 177.41-9.58 176.35-10.59L176.35-10.59Q175.52-11.43 175.21-11.76 174.9-12.08 174.42-12.37 173.94-12.66 173.8-12.68 173.67-12.7 173.34-12.5 173.01-12.3 172.81-12.02 172.62-11.73 172.18-11.07L172.18-11.07Q171.34-9.89 171.08-9.71L171.08-9.71Q170.46-9.36 166.99-9.36L166.99-9.36Q165.67-9.36 165.5-9.36L165.5-9.36Q165.15-9.36 164.53-9.36L164.53-9.36Q160.88-9.36 160.29-9.58 159.7-9.8 159.7-11.07L159.7-11.07Q159.7-11.29 159.7-11.43L159.7-11.43Q159.7-13.23 160.36-13.67L160.36-13.67Q161.15-14.15 159.57-14.77L159.57-14.77Q158.69-15.07 156.8-15.6L156.8-15.6Q155.39-16 155.24-15.91 155.08-15.82 155.17-14.81L155.17-14.81Q155.7-9.76 154.51-9.45L154.51-9.45Q153.94-9.27 146.32-9.38 138.69-9.49 137.59-9.67L137.59-9.67Q137.24-9.76 137.29-9.49L137.29-9.49Q137.29-9.27 137.68-8.48L137.68-8.48Q138.08-7.69 138.3-7.62 138.52-7.56 140.19-7.78L140.19-7.78Q142.69-8.09 148.97-8.09L148.97-8.09Q154.56-8.09 155-7.87L155-7.87Q155.21-7.78 155.35-7.29L155.35-7.29Q155.43-7.03 155.41-4.26 155.39-1.49 155.21 0.88L155.21 0.88Q155.08 2.68 155.15 3.1 155.21 3.52 155.57 3.74ZM146.21-13.62L146.21-13.62Q147.3-13.45 148.97-14.28L148.97-14.28Q149.81-14.63 149.88-14.96 149.94-15.29 149.85-17.75L149.85-17.75Q149.63-23.77 149.74-26.08 149.85-28.39 150.42-28.65L150.42-28.65Q150.64-28.74 150.75-28.85 150.86-28.96 150.86-29.07 150.86-29.18 150.78-29.29 150.69-29.4 150.47-29.44L150.47-29.44Q149.37-29.84 150.73-31.68L150.73-31.68Q150.91-31.9 151.41-32.61 151.92-33.31 152.09-33.57L152.09-33.57Q153.15-35.2 153.72-35.38L153.72-35.38Q154.69-35.64 153.02-36.52L153.02-36.52Q152.14-36.96 150.38-37.75L150.38-37.75Q148.45-38.54 148.32-38.01L148.32-38.01Q147.35-34.23 144.65-29.66 141.94-25.09 138.56-21.49L138.56-21.49Q137.59-20.52 138.03-20.39L138.03-20.39Q138.08-20.35 138.16-20.35L138.16-20.35Q138.38-20.35 140.03-21.47 141.68-22.59 143.09-23.69L143.09-23.69Q143.79-24.26 144.21-24.54 144.62-24.83 144.91-24.92 145.2-25 145.33-24.9 145.46-24.79 145.55-24.52 145.63-24.26 145.61-21.16 145.59-18.06 145.46-16.61L145.46-16.61Q145.33-14.68 145.44-14.24 145.55-13.8 146.21-13.62ZM162.77-15.29L162.77-15.29Q165.41-15.12 170.2-15.27 174.99-15.42 176.09-15.78L176.09-15.78Q177.28-16.17 177.43-17.03 177.58-17.89 176.66-18.72L176.66-18.72Q176.04-19.29 175.96-19.75 175.87-20.21 175.78-22.46L175.78-22.46Q175.69-24.74 175.61-24.96L175.61-24.96Q175.39-25.18 175.17-24.52L175.17-24.52Q175.03-24.21 174.9-23.64L174.9-23.64Q174.02-20.21 173.63-19.64L173.63-19.64Q173.06-18.85 171.17-18.76L171.17-18.76Q170.77-18.72 168.66-18.72L168.66-18.72Q168.31-18.72 167.74-18.72L167.74-18.72Q164.44-18.72 163.92-19.05 163.39-19.38 163.39-21.45L163.39-21.45Q163.39-21.8 163.39-21.97L163.39-21.97Q163.39-24.04 163.67-24.46 163.96-24.87 166.16-25.97L166.16-25.97Q170.73-28.39 173.5-30.45L173.5-30.45Q174.68-31.33 175.21-31.33L175.21-31.33Q176.31-31.33 175.39-32.26L175.39-32.26Q174.81-32.83 173.19-34.06L173.19-34.06Q171.96-35.02 171.72-35 171.47-34.98 170.24-33.75L170.24-33.75Q168.18-31.73 166.31-30.23 164.44-28.74 164-28.78L164-28.78Q163.26-28.87 163.26-32.06 163.26-35.24 163.96-35.73L163.96-35.73Q164.75-36.3 162.69-37L162.69-37Q161.76-37.35 160.22-37.71L160.22-37.71Q159.08-38.01 158.99-37.84L158.99-37.84Q158.95-37.75 159.04-36.96L159.04-36.96Q159.21-35.2 159.28-30.96 159.35-26.72 159.21-26.02L159.21-26.02Q158.91-24.57 152.23-21.62L152.23-21.62Q150.86-21.05 150.86-20.83L150.86-20.83Q150.86-20.74 151-20.61L151-20.61Q151.35-20.21 156.36-21.88L156.36-21.88Q158.55-22.59 158.88-22.32 159.21-22.06 159.3-19.73L159.3-19.73Q159.39-17.05 160-16.26 160.62-15.47 162.77-15.29Z" transform="translate(-2.7699999809265137, 38.222801208496094)"></path></g> <!----> <!----> <!----> <!----> <!----> <!----> <!----></g></g> <g data-gra="path-slogan" fill-rule="" class="tp-slogan iconsvg-slogansvg" fill="#333" transform="translate(38.21856689453125,48.09016799926758)"><!----> <!----> <g transform="scale(1, 1)"><g transform="scale(1)"><path d="M3.42-4.31L2.06-3.05L2.06 0L0.89 0L0.89-8.58L2.06-8.58L2.06-4.41L6.23-8.58L7.88-8.58L4.27-5.11L7.97 0L6.42 0L3.42-4.31ZM14.53-3.19L14.53-8.58L15.70-8.58L15.70-3.05Q15.56 0.05 12.19 0.14L12.19 0.14Q9.05 0.05 8.91-2.86L8.91-2.86L8.91-8.58L10.08-8.58L10.08-3.19Q10.13-0.84 12.23-0.80L12.23-0.80Q14.53-0.84 14.53-3.19L14.53-3.19ZM18.89-8.58L23.20-1.64L23.20-8.58L24.33-8.58L24.33 0L23.02 0L18.66-6.94L18.61-6.94L18.61 0L17.48 0L17.48-8.58L18.89-8.58ZM34.36-8.58L34.36 0L33.23 0L33.23-5.06Q33.23-5.77 33.23-7.22L33.23-7.22L30.80 0L29.63 0L27.23-7.22L27.19-7.22Q27.19-6.70 27.23-5.67L27.23-5.67Q27.23-5.16 27.23-5.06L27.23-5.06L27.23 0L26.06 0L26.06-8.58L27.75-8.58L30.23-1.31L32.67-8.58L34.36-8.58ZM36.23-8.58L37.41-8.58L37.41 0L36.23 0L36.23-8.58ZM40.78-8.58L45.09-1.64L45.09-8.58L46.22-8.58L46.22 0L44.91 0L40.55-6.94L40.50-6.94L40.50 0L39.38 0L39.38-8.58L40.78-8.58ZM54.42-3.61L51.80-3.61L51.80-4.59L55.55-4.59L55.55 0L54.80 0L54.52-1.08Q53.53 0.09 51.70 0.14L51.70 0.14Q49.97 0.14 49.03-0.75L49.03-0.75Q47.63-2.06 47.67-4.36L47.67-4.36Q48-8.63 51.75-8.81L51.75-8.81Q54.94-8.63 55.41-6L55.41-6L54.28-6Q53.81-7.78 51.70-7.83L51.70-7.83Q49.03-7.64 48.89-4.31L48.89-4.31Q48.89-0.75 51.75-0.75L51.75-0.75Q52.78-0.75 53.53-1.31L53.53-1.31Q54.47-2.06 54.42-3.61L54.42-3.61ZM59.95-1.92L59.95-2.77L61.03-2.77L61.03-2.16Q61.03-0.75 62.34-0.75L62.34-0.75Q63.70-0.75 63.70-2.25L63.70-2.25L63.70-8.58L64.88-8.58L64.88-2.30Q64.83 0.09 62.39 0.14L62.39 0.14Q60.09 0.09 59.95-1.92L59.95-1.92ZM72.33-3.19L72.33-8.58L73.50-8.58L73.50-3.05Q73.36 0.05 69.98 0.14L69.98 0.14Q66.84 0.05 66.70-2.86L66.70-2.86L66.70-8.58L67.88-8.58L67.88-3.19Q67.92-0.84 70.03-0.80L70.03-0.80Q72.33-0.84 72.33-3.19L72.33-3.19ZM76.45-5.06L80.95-5.06L80.95-8.58L82.13-8.58L82.13 0L80.95 0L80.95-3.98L76.45-3.98L76.45 0L75.28 0L75.28-8.58L76.45-8.58L76.45-5.06ZM89.58-3.19L89.58-8.58L90.75-8.58L90.75-3.05Q90.61 0.05 87.23 0.14L87.23 0.14Q84.09 0.05 83.95-2.86L83.95-2.86L83.95-8.58L85.13-8.58L85.13-3.19Q85.17-0.84 87.28-0.80L87.28-0.80Q89.58-0.84 89.58-3.19L89.58-3.19ZM98.20 0L97.36-2.48L93.89-2.48L93 0L91.83 0L95.06-8.58L96.38-8.58L99.47 0L98.20 0ZM95.63-7.31L94.27-3.52L96.94-3.52L95.67-7.31L95.63-7.31Z" transform="translate(-0.890625, 8.8125)"></path></g></g></g></g></g><defs v-gra="od"></defs></svg>