<svg data-v-0dd9719b="" version="1.0" xmlns="http://www.w3.org/2000/svg" xmlns:xlink="http://www.w3.org/1999/xlink" width="100%" height="100%" viewBox="0 0 340.000000 250.000000" preserveAspectRatio="xMidYMid meet" color-interpolation-filters="sRGB" style="margin: auto;"> <rect data-v-0dd9719b="" x="0" y="0" width="100%" height="100%" fill="#fff" fill-opacity="1" class="background"></rect> <rect data-v-0dd9719b="" x="0" y="0" width="100%" height="100%" fill="url(#watermark)" fill-opacity="1" class="watermarklayer"></rect> <g data-v-0dd9719b="" fill="#333" class="icon-text-wrapper icon-svg-group iconsvg" transform="translate(49.11000061035156,95.06525611877441)"><g class="iconsvg-imagesvg" transform="translate(0,0)"><g><rect fill="#333" fill-opacity="0" stroke-width="2" x="0" y="0" width="60" height="59.869484523738244" class="image-rect"></rect> <svg x="0" y="0" width="60" height="59.869484523738244" filtersec="colorsb4108199702" class="image-svg-svg primary" style="overflow: visible;"><svg xmlns="http://www.w3.org/2000/svg" viewBox="-0.02885628119111061 0 112.13382720947266 111.88999938964844"><path d="M55.66 0A56 56 0 0 0 9.51 24.34l7.54 4.35A47.28 47.28 0 0 1 88.63 22L55.74 41l-8.53-4.92 14.29-8.24 10-5.76a37.4 37.4 0 0 0-42.23 7.47 38.66 38.66 0 0 0-3.56 4.12L55.65 51l46.16-26.64A55.91 55.91 0 0 0 55.66 0z" fill="#00b6bd"></path><path d="M15 79.69a47.43 47.43 0 0 1-4.88-35.32l32.8 19.11v9.83l-14.25-8.24-10-5.76a37.42 37.42 0 0 0 27.61 32.84 39.12 39.12 0 0 0 5.35 1V58.53L5.51 31.89a55.9 55.9 0 0 0 46.13 80v-8.7A47.33 47.33 0 0 1 15 79.69z" fill="#004c72"></path><path d="M106.6 31.92l-7.54 4.36A47.26 47.26 0 0 1 69 101.6v-38l8.53-4.92v28a37.4 37.4 0 0 0 12.9-45.41l-30 17.28v53.3a55.9 55.9 0 0 0 46.17-79.93z" fill="#6bac00"></path></svg></svg> <!----></g></g> <g transform="translate(67,1.7334918975830078)"><g data-gra="path-name" fill-rule="" class="tp-name iconsvg-namesvg" transform="translate(0,0)"><g transform="scale(1)"><g><path d="M6.03 3.92L6.03 3.92 3.1 3.92 3.1-33.93Q3.1-34.56 3.53-34.99 3.96-35.41 4.59-35.41L4.59-35.41 14.71-35.41Q15.43-35.41 15.84-34.88L15.84-34.88Q16.29-34.42 16.2-33.7L16.2-33.7 13.81-19.53 16.11-1.84Q16.2-1.21 15.75-0.72L15.75-0.72Q15.21-0.18 14.63-0.18L14.63-0.18 8.23-0.18 8.23-3.15 12.96-3.15 10.89-19.39Q10.8-19.57 10.89-19.8L10.89-19.8 13-32.45 6.03-32.45 6.03 3.92ZM41.89-32.76L41.89-29.79 31.05-29.79 31.05-17.19 35.05-17.19 37.75-27.27 40.59-26.5 38.12-17.19 42.66-17.19 42.66-14.22 31.05-14.22 31.05-12.82 42.8 2.56 40.45 4.37 29.56-9.81 18.72 4.37 16.38 2.56 28.13-12.78 28.13-14.22 16.52-14.22 16.52-17.19 28.13-17.19 28.13-29.79 17.28-29.79 17.28-32.76 28.13-32.76 28.13-36.27 31.05-36.27 31.05-32.76 41.89-32.76ZM23.49-18.77L20.61-18.09 18.59-26.55 21.46-27.22 23.49-18.77ZM85 3.82L85 3.82 49.86 3.82Q49.23 3.82 48.8 3.4 48.38 2.97 48.38 2.34L48.38 2.34 48.38-26.19Q48.38-26.82 48.8-27.25 49.23-27.68 49.86-27.68L49.86-27.68 59.8-27.68 60.84-33.16 47.25-33.16 47.25-36.13 87.61-36.13 87.61-33.16 75.83-33.16 75.83-27.68 85-27.68Q85.63-27.68 86.04-27.25 86.44-26.82 86.44-26.19L86.44-26.19 86.44 2.34Q86.44 2.97 86.04 3.4 85.63 3.82 85 3.82L85 3.82ZM58.77-6.88L58.77-6.88 55.84-7.42 59.22-24.7 51.34-24.7 51.34 0.85 83.52 0.85 83.52-7.33 74.38-7.33Q73.75-7.33 73.33-7.76 72.9-8.19 72.9-8.82L72.9-8.82 72.9-24.7 62.19-24.7 58.77-6.88ZM63.81-33.16L62.77-27.68 72.9-27.68 72.9-33.16 63.81-33.16ZM83.52-10.3L83.52-24.7 75.83-24.7 75.83-10.3 83.52-10.3ZM104.44 3.87L104.44 3.87 95.04 3.87 95.04 0.94 102.96 0.94 102.96-15.57 94.09-15.57Q93.47-15.57 92.97-16.06L92.97-16.06Q92.52-16.56 92.61-17.19L92.61-17.19 93.87-30.15 96.8-29.88 95.72-18.54 101.79-18.54 103.05-33.3 92.34-33.3 92.34-36.27 104.67-36.27Q105.34-36.27 105.75-35.77L105.75-35.77Q106.2-35.28 106.11-34.65L106.11-34.65 104.76-18.5Q105.16-18.4 105.48-18.09L105.48-18.09Q105.93-17.68 105.93-17.05L105.93-17.05 105.93 2.43Q105.93 3.06 105.5 3.46 105.08 3.87 104.44 3.87L104.44 3.87ZM112.72-36.18L111.42 3.28 108.5 3.19 109.75-36.27 112.72-36.18ZM132.16-36.23L132.16 3.92 129.24 3.92 129.24-36.23 132.16-36.23ZM122.44-34.83L122.44 2.52 119.47 2.52 119.47-34.83 122.44-34.83ZM101.56-7.88L92.79-4.59 91.75-7.33 100.53-10.62 101.56-7.88ZM174.91 4.05L174.91 4.05 171.27-33.12 164.25-32.85 164.25 0.99 169.43 0.99 167.58-9.95 170.5-10.44 172.62 2.25Q172.75 2.88 172.31 3.42L172.31 3.42Q171.81 3.96 171.18 3.96L171.18 3.96 162.76 3.96Q162.13 3.96 161.71 3.53 161.28 3.1 161.28 2.48L161.28 2.48 161.28-32.71 154.62-32.49 154.62-4.23Q154.62-4.09 154.6-3.98 154.57-3.87 154.53-3.73L154.53-3.73 151.83 4.37 149 3.46 151.65-4.46 151.65-33.93Q151.65-34.56 152.06-34.96 152.46-35.37 153.09-35.41L153.09-35.41 177.34-36.31 177.44-33.34 174.19-33.21 177.88 3.78 174.91 4.05ZM138.6-5.63L138.6-5.63 136.35-7.51 144.41-16.92 144.41-27.49 138.6-20.7 136.35-22.59 143.06-30.51 138.01-34.29 139.77-36.67 144.99-32.76 148.68-37.08 150.93-35.14 147.24-30.82Q147.33-30.55 147.33-30.29L147.33-30.29 147.33 2.43Q147.33 3.06 146.93 3.49 146.52 3.92 145.89 3.92L145.89 3.92 138.01 3.92 138.01 0.99 144.41 0.99 144.41-12.38 138.6-5.63Z" transform="translate(-3.0999999046325684, 37.08000183105469)"></path></g> <!----> <!----> <!----> <!----> <!----> <!----> <!----></g></g> <g data-gra="path-slogan" fill-rule="" class="tp-slogan iconsvg-slogansvg" fill="#333" transform="translate(38.989173889160156,47.45000076293945)"><!----> <!----> <g transform="scale(1, 1)"><g transform="scale(1)"><path d="M7.17-6.09L7.17-6.09L6.09-6.09Q6-7.73 3.94-7.83L3.94-7.83Q2.02-7.78 2.02-6.33L2.02-6.33Q2.02-5.39 3.05-5.25L3.05-5.25L5.48-4.69Q7.41-4.22 7.41-2.34L7.41-2.34Q7.36 0.05 4.03 0.14L4.03 0.14Q2.20 0.14 1.45-0.61L1.45-0.61Q0.52-1.31 0.56-2.77L0.56-2.77L1.69-2.77Q1.73-0.80 4.03-0.75L4.03-0.75Q6.28-0.80 6.33-2.20L6.33-2.20Q6.52-3.38 4.45-3.75L4.45-3.75L2.67-4.13Q0.84-4.64 0.84-6.19L0.84-6.19Q0.98-8.72 3.84-8.81L3.84-8.81Q7.08-8.81 7.17-6.09ZM10.03-5.06L14.53-5.06L14.53-8.58L15.70-8.58L15.70 0L14.53 0L14.53-3.98L10.03-3.98L10.03 0L8.86 0L8.86-8.58L10.03-8.58L10.03-5.06ZM23.16 0L22.31-2.48L18.84-2.48L17.95 0L16.78 0L20.02-8.58L21.33-8.58L24.42 0L23.16 0ZM20.58-7.31L19.22-3.52L21.89-3.52L20.63-7.31L20.58-7.31ZM31.13 0L30.28-2.48L26.81-2.48L25.92 0L24.75 0L27.98-8.58L29.30-8.58L32.39 0L31.13 0ZM28.55-7.31L27.19-3.52L29.86-3.52L28.59-7.31L28.55-7.31ZM34.83-8.58L39.14-1.64L39.14-8.58L40.27-8.58L40.27 0L38.95 0L34.59-6.94L34.55-6.94L34.55 0L33.42 0L33.42-8.58L34.83-8.58ZM48.80-8.58L45.89-4.41L48.94 0L47.48 0L45.14-3.52L42.80 0L41.39 0L44.48-4.41L41.58-8.58L43.03-8.58L45.19-5.30L47.39-8.58L48.80-8.58ZM50.20-8.58L51.38-8.58L51.38 0L50.20 0L50.20-8.58ZM63.42-8.58L60.52-4.41L63.56 0L62.11 0L59.77-3.52L57.42 0L56.02 0L59.11-4.41L56.20-8.58L57.66-8.58L59.81-5.30L62.02-8.58L63.42-8.58ZM70.31-3.19L70.31-8.58L71.48-8.58L71.48-3.05Q71.34 0.05 67.97 0.14L67.97 0.14Q64.83 0.05 64.69-2.86L64.69-2.86L64.69-8.58L65.86-8.58L65.86-3.19Q65.91-0.84 68.02-0.80L68.02-0.80Q70.31-0.84 70.31-3.19L70.31-3.19ZM74.67-8.58L78.98-1.64L78.98-8.58L80.11-8.58L80.11 0L78.80 0L74.44-6.94L74.39-6.94L74.39 0L73.27 0L73.27-8.58L74.67-8.58ZM83.06-5.06L87.56-5.06L87.56-8.58L88.73-8.58L88.73 0L87.56 0L87.56-3.98L83.06-3.98L83.06 0L81.89 0L81.89-8.58L83.06-8.58L83.06-5.06ZM96.19-3.19L96.19-8.58L97.36-8.58L97.36-3.05Q97.22 0.05 93.84 0.14L93.84 0.14Q90.70 0.05 90.56-2.86L90.56-2.86L90.56-8.58L91.73-8.58L91.73-3.19Q91.78-0.84 93.89-0.80L93.89-0.80Q96.19-0.84 96.19-3.19L96.19-3.19Z" transform="translate(-0.5602678571428572, 8.8125)"></path></g></g></g></g></g><defs v-gra="od"></defs></svg>